<svg xmlns="http://www.w3.org/2000/svg" width="93.081" height="79.784" viewBox="0 0 93.081 79.784">
    <defs>
        <style>
            .cls-1{fill:#a8a8a8;fill-rule:evenodd}
        </style>
    </defs>
    <g id="noun_Flip_Camera_1751198" data-name="noun_Flip Camera_1751198">
        <g id="Group_891" data-name="Group 891">
            <path id="Path_525" d="M33.246 46.541h3.322a1.662 1.662 0 0 0 1.33-2.659l-6.649-8.865a1.662 1.662 0 0 0-2.659 0l-6.649 8.865a1.662 1.662 0 0 0 1.33 2.659H26.6a19.913 19.913 0 0 0 2.67 9.973 19.5 19.5 0 0 0 12.146 9.3 20.291 20.291 0 0 0 15.1-2 3.324 3.324 0 0 0-3.324-5.758 13.65 13.65 0 0 1-10.124 1.319 12.852 12.852 0 0 1-8.04-6.186 13.27 13.27 0 0 1-1.782-6.648zm26.816-3.324h-3.548a1.662 1.662 0 0 0-1.33 2.659l6.649 8.865a1.662 1.662 0 0 0 2.659 0l6.649-8.865a1.662 1.662 0 0 0-1.33-2.659h-3.1A19.949 19.949 0 0 0 36.79 26.165a3.324 3.324 0 1 0 3.324 5.758 13.064 13.064 0 0 1 10.075-1.333 13.425 13.425 0 0 1 8.09 6.2 13.245 13.245 0 0 1 1.783 6.426zM23.27 13.3l3.2-7.322A9.973 9.973 0 0 1 35.61 0h21.861a9.973 9.973 0 0 1 9.137 5.976l3.2 7.322h9.973a13.3 13.3 0 0 1 13.3 13.3v39.889a13.3 13.3 0 0 1-13.3 13.3H13.3A13.3 13.3 0 0 1 0 66.487V26.595A13.3 13.3 0 0 1 13.3 13.3z" class="cls-1" data-name="Path 525"/>
        </g>
    </g>
</svg>
