<svg xmlns="http://www.w3.org/2000/svg" width="87.984" height="48.098" viewBox="0 0 87.984 48.098">
    <defs>
        <style>
            .cls-1{fill:#a8a8a8}
        </style>
    </defs>
    <g id="noun_Video_966159">
        <g id="Group_988" data-name="Group 988">
            <path id="Path_544" d="M65.754 75.6H17.421a6.934 6.934 0 0 1-6.921-6.923V34.421a6.934 6.934 0 0 1 6.921-6.921h48.216a6.934 6.934 0 0 1 6.921 6.921v34.138a6.862 6.862 0 0 1-6.804 7.041z" class="cls-1" data-name="Path 544" transform="translate(-10.5 -27.5)"/>
            <path id="Path_545" d="M67.5 40.727v20.882l19.357 10.91a1.167 1.167 0 0 0 1.76-1.056v-40.59a1.2 1.2 0 0 0-1.76-1.056z" class="cls-1" data-name="Path 545" transform="translate(-.632 -27.119)"/>
        </g>
    </g>
</svg>
