<svg xmlns="http://www.w3.org/2000/svg" width="85.199" height="66.335" viewBox="0 0 85.199 66.335">
    <defs>
        <style>
            .cls-1{fill:#a8a8a8}
        </style>
    </defs>
    <g id="noun_Speaker_10453">
        <path id="Path_653" d="M66.7 68.251a3.343 3.343 0 1 1-2.595-6.162 14.358 14.358 0 0 0 4.46-3.026 14.321 14.321 0 0 0 3.026-4.463 13.884 13.884 0 0 0 .827-2.673 14.13 14.13 0 0 0 .266-2.808 14.272 14.272 0 0 0-.266-2.809 13.7 13.7 0 0 0-2.123-5.039 14.3 14.3 0 0 0-6.189-5.119 3.344 3.344 0 1 1 2.594-6.161 20.668 20.668 0 0 1 11.054 11.053A20.645 20.645 0 0 1 78.976 45a20.231 20.231 0 0 1 0 8.241 20.571 20.571 0 0 1-1.222 3.959 20.695 20.695 0 0 1-7.529 9.156 21.255 21.255 0 0 1-3.525 1.895z" class="cls-1" data-name="Path 653" transform="translate(-7.785 -16.187)"/>
        <path id="Path_654" d="M72.983 79.2a3.344 3.344 0 1 1-2.595-6.163 26.577 26.577 0 0 0 8.366-5.659 26.558 26.558 0 0 0 5.658-8.364 25.867 25.867 0 0 0 2.059-10.264 26.673 26.673 0 0 0-.508-5.254 26.036 26.036 0 0 0-1.551-5.008 26.624 26.624 0 0 0-14.023-14.027 3.344 3.344 0 1 1 2.594-6.161A33.054 33.054 0 0 1 83.5 72.122a33.393 33.393 0 0 1-4.918 4.049 33.01 33.01 0 0 1-5.599 3.029z" class="cls-1" data-name="Path 654" transform="translate(-7.985 -15.815)"/>
        <path id="Path_655" d="M44.844 17.156Q34.819 24.7 24.791 32.251H11.776A5.794 5.794 0 0 0 6 38.026v21.768a5.793 5.793 0 0 0 5.776 5.775H24.79q10.026 7.547 20.053 15.1c3.047 2.292 6.577 1.925 6.577-2.053V19.21c.001-3.979-3.528-4.348-6.576-2.054z" class="cls-1" data-name="Path 655" transform="translate(-6 -15.742)"/>
    </g>
</svg>
