<svg xmlns="http://www.w3.org/2000/svg" width="50.896" height="81.645" viewBox="0 0 50.896 81.645">
    <defs>
        <style>
            .cls-1{fill:#a8a8a8}
        </style>
    </defs>
    <g id="noun_mic_873979">
        <path id="Path_546" d="M76.9 41.629v12.724a25.522 25.522 0 0 1-22.271 25.235v8.695h7.422v6.362H40.845v-6.362h7.422v-8.695A25.522 25.522 0 0 1 26 54.353V41.629h6.362v12.724a19.086 19.086 0 0 0 38.172 0V41.629zM51.448 68.137a13.757 13.757 0 0 0 13.784-13.784V41.629H37.664v12.724a13.757 13.757 0 0 0 13.784 13.784zm13.784-41.353a13.784 13.784 0 0 0-27.568 0v12.724h27.568z" class="cls-1" data-name="Path 546" transform="translate(-26 -13)"/>
    </g>
</svg>
